<svg version="1.1" id="Layer_1" xmlns="http://www.w3.org/2000/svg" xmlns:xlink="http://www.w3.org/1999/xlink" x="0px" y="0px"
	 width="100%" viewBox="0 0 512 512" enable-background="new 0 0 512 512" xml:space="preserve">
<path fill="#FCAE28" opacity="1.000000" stroke="none" 
	d="
M249.000000,513.000000 
	C183.645767,513.000000 118.291542,513.000000 52.478195,512.552734 
	C51.854553,498.119324 57.511009,486.709106 67.912056,477.719330 
	C78.439064,468.620728 91.188545,466.765747 104.811821,468.246246 
	C101.103165,450.406830 97.539162,433.263275 93.994576,415.686768 
	C93.516479,412.157867 93.200035,409.019775 92.490265,405.973267 
	C89.348747,392.489197 87.195305,378.883057 90.186539,365.157928 
	C91.834152,357.597900 94.672768,350.297424 97.121292,342.561340 
	C111.727768,315.349823 135.125854,302.550323 163.952316,299.891998 
	C163.952316,293.083069 164.214615,286.693329 163.900513,280.332062 
	C163.122299,264.571564 162.080536,248.824097 161.387512,233.364090 
	C167.125824,264.729492 181.996368,290.388062 208.413132,307.722321 
	C228.907196,321.170197 250.882309,332.367767 272.303864,344.378784 
	C273.616241,345.114624 276.163635,344.777222 277.606506,343.980042 
	C296.635345,333.467255 315.712708,323.028625 334.490173,312.078003 
	C358.240601,298.227264 374.467255,277.930603 383.761017,252.124039 
	C385.921143,246.125885 387.465759,239.906067 389.111511,234.211548 
	C389.007507,236.426224 389.085571,238.217606 389.093018,240.423203 
	C389.067841,242.234756 389.113251,243.632111 389.094177,245.465958 
	C388.356842,254.405716 387.540039,262.900696 387.050751,271.414490 
	C386.538879,280.321228 386.366119,289.247101 385.970612,298.161346 
	C385.929749,299.082001 385.381409,299.980133 385.052490,301.351776 
	C383.067719,333.575531 381.099030,365.336212 379.111816,397.554840 
	C376.728851,436.341827 374.364441,474.670929 372.000000,513.000000 
	C348.979095,513.000000 325.958221,513.000000 302.445374,512.531799 
	C301.645691,496.028198 301.337921,479.992798 301.024719,463.493134 
	C301.015076,437.385834 300.942780,411.742462 301.079254,386.100189 
	C301.099976,382.205566 299.964752,380.866608 295.971191,380.926758 
	C282.153748,381.134888 268.327881,381.177856 254.512543,380.908264 
	C250.029327,380.820740 248.894485,382.300568 248.915115,386.621857 
	C249.079559,421.089264 249.019028,455.557800 249.015961,490.492859 
	C249.002991,498.306488 249.001495,505.653259 249.000000,513.000000 
z"/>
<path fill="#000000" opacity="1.000000" stroke="none" 
	d="
M161.144653,233.071396 
	C162.080536,248.824097 163.122299,264.571564 163.900513,280.332062 
	C164.214615,286.693329 163.952316,293.083069 163.952316,299.891998 
	C135.125854,302.550323 111.727768,315.349823 96.773888,342.466858 
	C89.214989,328.727478 89.147240,314.271362 94.163216,299.854279 
	C98.745407,286.684052 97.432640,274.372528 91.649963,261.918152 
	C89.757561,257.842377 87.149437,257.344086 83.917580,258.104401 
	C64.618736,262.644440 47.887020,271.504425 35.769012,287.740265 
	C22.482569,305.541534 16.844402,325.245270 19.874487,347.555298 
	C22.614328,367.728241 31.549868,384.183502 46.868000,397.374268 
	C60.421146,409.045197 75.927147,415.765625 93.975166,416.119690 
	C97.539162,433.263275 101.103165,450.406830 104.811821,468.246246 
	C91.188545,466.765747 78.439064,468.620728 67.912056,477.719330 
	C57.511009,486.709106 51.854553,498.119324 52.009537,512.552734 
	C35.011005,513.000000 18.022015,513.000000 1.016511,513.000000 
	C1.016511,342.454834 1.016511,171.909683 1.016511,1.000000 
	C38.353436,1.000000 75.708061,1.000000 113.531204,1.468654 
	C114.672134,16.751892 113.806023,31.841160 116.390038,46.314457 
	C119.957314,66.295120 126.114143,85.814461 131.242752,105.510323 
	C131.393158,106.087952 132.452911,106.428810 133.444687,107.130417 
	C133.867050,109.198723 133.990128,111.016640 133.991150,112.834625 
	C134.004089,136.048141 133.830231,159.263641 134.101883,182.473969 
	C134.184097,189.498428 136.502335,196.071304 142.003891,201.015045 
	C142.008514,200.990143 141.958252,200.996353 141.979156,201.335968 
	C142.994278,202.794739 143.988495,203.913895 144.992096,205.016006 
	C145.001465,204.998978 144.966858,205.016495 145.039047,205.331406 
	C145.721130,205.797745 146.331039,205.949188 147.092133,206.402878 
	C151.546417,210.237900 155.849472,213.770676 160.094788,217.737686 
	C160.406235,223.138428 160.775436,228.104904 161.144653,233.071396 
z"/>
<path fill="#000000" opacity="1.000000" stroke="none" 
	d="
M385.068573,300.888733 
	C385.381409,299.980133 385.929749,299.082001 385.970612,298.161346 
	C386.366119,289.247101 386.538879,280.321228 387.050751,271.414490 
	C387.540039,262.900696 388.356842,254.405716 389.423492,245.683197 
	C389.898895,246.957870 389.727417,248.518402 390.100250,249.935715 
	C395.286194,269.648102 411.118774,283.884583 432.130188,283.990387 
	C442.961029,284.044952 453.792419,284.010590 464.623474,283.986664 
	C466.041138,283.983521 467.458405,283.802612 469.111786,283.687653 
	C469.212860,269.355865 464.316254,257.744293 453.007904,249.713333 
	C447.287994,245.651184 440.447296,243.167252 434.241150,239.612946 
	C454.550201,235.885193 472.420349,212.706741 468.235809,194.999374 
	C459.846558,194.999374 451.394714,194.921356 442.945282,195.029785 
	C438.179260,195.090942 433.278931,194.829666 428.686096,195.838318 
	C422.005554,197.305481 415.547882,199.787445 408.997620,201.528961 
	C409.013031,200.811050 409.026001,200.400894 409.014526,199.989075 
	C408.990112,199.987442 408.999390,200.035522 409.338196,199.927795 
	C415.314026,193.475937 416.826660,185.492035 416.841980,177.624008 
	C416.889099,153.410980 416.224976,129.196579 415.910034,104.583214 
	C418.853088,94.089195 422.104248,84.083908 424.495575,73.877167 
	C427.376831,61.579060 430.302429,49.200737 431.770355,36.688377 
	C433.152618,24.906330 432.665009,12.904910 433.000000,1.000000 
	C459.647369,1.000000 486.294708,1.000000 512.964600,1.000000 
	C512.964600,171.666672 512.964600,342.333344 512.964600,513.000000 
	C507.599762,513.000000 502.270355,513.000000 496.470398,512.564758 
	C495.518890,501.584991 492.366272,491.961700 485.388885,483.950684 
	C474.321014,471.243164 459.659698,467.392883 443.291412,467.959595 
	C447.204895,449.860168 451.165375,432.115662 454.841278,414.312408 
	C456.813446,404.760956 459.076141,395.169037 459.827454,385.488251 
	C461.135803,368.629547 457.142792,352.750183 448.041016,338.337067 
	C442.757477,329.970306 436.633453,322.368011 427.671265,317.009644 
	C426.291351,316.129791 425.235077,315.402008 424.170837,314.686066 
	C412.325714,306.718079 399.484161,301.572510 385.068573,300.888733 
z"/>
<path fill="#F58F00" opacity="1.000000" stroke="none" 
	d="
M427.991150,317.167206 
	C436.633453,322.368011 442.757477,329.970306 448.041016,338.337067 
	C457.142792,352.750183 461.135803,368.629547 459.827454,385.488251 
	C459.076141,395.169037 456.813446,404.760956 454.841278,414.312408 
	C451.165375,432.115662 447.204895,449.860168 443.291412,467.959595 
	C459.659698,467.392883 474.321014,471.243164 485.388885,483.950684 
	C492.366272,491.961700 495.518890,501.584991 495.999939,512.564758 
	C454.979095,513.000000 413.958221,513.000000 372.468689,513.000000 
	C374.364441,474.670929 376.728851,436.341827 379.436584,397.472839 
	C383.159180,393.333923 387.151276,390.135010 389.808838,386.064728 
	C399.871948,370.652405 409.875092,355.174164 419.119598,339.266693 
	C423.066376,332.475281 425.092346,324.567627 427.991150,317.167206 
z"/>
<path fill="#F7A116" opacity="1.000000" stroke="none" 
	d="
M133.088669,106.880066 
	C132.452911,106.428810 131.393158,106.087952 131.242752,105.510323 
	C126.114143,85.814461 119.957314,66.295120 116.390038,46.314457 
	C113.806023,31.841160 114.672134,16.751892 113.999863,1.468654 
	C123.020897,1.000000 132.041794,1.000000 141.228165,1.353762 
	C142.230637,2.135294 143.025558,2.786640 143.911667,2.953367 
	C148.530930,3.822516 153.336746,4.052201 157.776169,5.457067 
	C169.597214,9.197856 181.418976,13.036044 192.932663,17.610243 
	C199.609634,20.262903 205.692627,24.410740 211.819183,28.161186 
	C199.417404,32.703152 190.727890,41.615482 181.978760,50.510132 
	C171.719528,60.940033 161.290543,71.202766 150.969498,81.572159 
	C144.397446,88.174988 137.982315,94.893440 135.060791,104.103752 
	C134.733978,105.134048 133.761642,105.959572 133.088669,106.880066 
z"/>
<path fill="#F7A116" opacity="1.000000" stroke="none" 
	d="
M432.531372,1.000000 
	C432.665009,12.904910 433.152618,24.906330 431.770355,36.688377 
	C430.302429,49.200737 427.376831,61.579060 424.495575,73.877167 
	C422.104248,84.083908 418.853088,94.089195 415.675049,104.335732 
	C412.252960,95.425003 406.244812,88.473251 399.488312,81.902962 
	C387.556976,70.300438 375.702271,58.604420 364.203064,46.577011 
	C355.893280,37.885540 347.148010,30.255434 335.047485,27.612526 
	C356.695923,15.107116 379.463654,6.531987 404.009766,2.934603 
	C405.078064,2.778035 406.006439,1.666630 407.000000,1.000004 
	C415.354218,1.000000 423.708466,1.000000 432.531372,1.000000 
z"/>
<path fill="#000000" opacity="1.000000" stroke="none" 
	d="
M406.531342,1.000004 
	C406.006439,1.666630 405.078064,2.778035 404.009766,2.934603 
	C379.463654,6.531987 356.695923,15.107116 334.585632,27.641220 
	C293.329926,27.956463 252.686417,27.921101 212.042908,27.885736 
	C205.692627,24.410740 199.609634,20.262903 192.932663,17.610243 
	C181.418976,13.036044 169.597214,9.197856 157.776169,5.457067 
	C153.336746,4.052201 148.530930,3.822516 143.911667,2.953367 
	C143.025558,2.786640 142.230637,2.135294 141.696823,1.353762 
	C230.020889,1.000000 318.041779,1.000000 406.531342,1.000004 
z"/>
<path fill="#F58F00" opacity="1.000000" stroke="none" 
	d="
M301.030151,463.957397 
	C301.337921,479.992798 301.645691,496.028198 301.976715,512.531799 
	C284.645782,513.000000 267.291534,513.000000 249.468658,513.000000 
	C249.001495,505.653259 249.002991,498.306488 249.370270,490.428894 
	C260.566864,484.569183 271.430359,479.305359 282.216095,473.886780 
	C288.551300,470.704132 294.762909,467.275421 301.030151,463.957397 
z"/>
<path fill="#3286CC" opacity="1.000000" stroke="none" 
	d="
M161.387512,233.364090 
	C160.775436,228.104904 160.406235,223.138428 160.401093,217.812180 
	C177.416000,230.717346 194.105896,243.933716 210.698593,257.270966 
	C217.375366,262.637817 224.683044,266.233276 233.389557,266.244659 
	C261.345642,266.281219 289.301941,266.290527 317.257904,266.214661 
	C325.390900,266.192596 332.379608,262.984100 338.680542,257.960297 
	C355.704437,244.386963 372.788116,230.888535 389.911255,217.770294 
	C389.994171,221.749908 390.013947,225.319611 390.025757,229.264404 
	C389.776398,231.022430 389.534973,232.405334 389.293579,233.788254 
	C387.465759,239.906067 385.921143,246.125885 383.761017,252.124039 
	C374.467255,277.930603 358.240601,298.227264 334.490173,312.078003 
	C315.712708,323.028625 296.635345,333.467255 277.606506,343.980042 
	C276.163635,344.777222 273.616241,345.114624 272.303864,344.378784 
	C250.882309,332.367767 228.907196,321.170197 208.413132,307.722321 
	C181.996368,290.388062 167.125824,264.729492 161.387512,233.364090 
z"/>
<path fill="#EE9200" opacity="1.000000" stroke="none" 
	d="
M93.994576,415.686768 
	C75.927147,415.765625 60.421146,409.045197 46.868000,397.374268 
	C31.549868,384.183502 22.614328,367.728241 19.874487,347.555298 
	C16.844402,325.245270 22.482569,305.541534 35.769012,287.740265 
	C47.887020,271.504425 64.618736,262.644440 83.917580,258.104401 
	C87.149437,257.344086 89.757561,257.842377 91.649963,261.918152 
	C97.432640,274.372528 98.745407,286.684052 94.163216,299.854279 
	C89.147240,314.271362 89.214989,328.727478 96.627029,342.785461 
	C94.672768,350.297424 91.834152,357.597900 90.186539,365.157928 
	C87.195305,378.883057 89.348747,392.489197 92.490265,405.973267 
	C93.200035,409.019775 93.516479,412.157867 93.994576,415.686768 
z"/>
<path fill="#F7A116" opacity="1.000000" stroke="none" 
	d="
M301.024719,463.493103 
	C294.762909,467.275421 288.551300,470.704132 282.216095,473.886780 
	C271.430359,479.305359 260.566864,484.569183 249.381760,489.962006 
	C249.019028,455.557800 249.079559,421.089264 248.915115,386.621857 
	C248.894485,382.300568 250.029327,380.820740 254.512543,380.908264 
	C268.327881,381.177856 282.153748,381.134888 295.971191,380.926758 
	C299.964752,380.866608 301.099976,382.205566 301.079254,386.100189 
	C300.942780,411.742462 301.015076,437.385834 301.024719,463.493103 
z"/>
<path fill="#348FD9" opacity="1.000000" stroke="none" 
	d="
M389.111511,234.211548 
	C389.534973,232.405334 389.776398,231.022430 390.380005,229.137131 
	C393.217834,223.171082 395.693481,217.707413 398.445923,212.066223 
	C400.477448,209.992508 402.232239,208.096313 404.245819,206.075592 
	C404.692017,205.631149 404.879395,205.311234 405.030396,204.993530 
	C404.993958,204.995743 404.997467,205.068649 405.264587,204.995224 
	C405.708160,204.615875 405.884644,204.309952 406.029724,204.001282 
	C405.998291,203.998520 406.007141,204.060959 406.275391,203.999969 
	C406.716095,203.627762 406.888489,203.316559 407.030518,203.003937 
	C407.000122,203.002533 407.021240,203.059616 407.304321,202.972305 
	C408.056610,202.535553 408.525879,202.186111 408.995148,201.836670 
	C415.547882,199.787445 422.005554,197.305481 428.686096,195.838318 
	C433.278931,194.829666 438.179260,195.090942 442.945282,195.029785 
	C451.394714,194.921356 459.846558,194.999374 468.235809,194.999374 
	C472.420349,212.706741 454.550201,235.885193 433.765106,239.620697 
	C418.495361,239.993134 403.829498,240.001068 389.163635,240.008987 
	C389.085571,238.217606 389.007507,236.426224 389.111511,234.211548 
z"/>
<path fill="#3086CD" opacity="1.000000" stroke="none" 
	d="
M389.093018,240.423203 
	C403.829498,240.001068 418.495361,239.993134 433.637268,239.977478 
	C440.447296,243.167252 447.287994,245.651184 453.007904,249.713333 
	C464.316254,257.744293 469.212860,269.355865 469.111786,283.687653 
	C467.458405,283.802612 466.041138,283.983521 464.623474,283.986664 
	C453.792419,284.010590 442.961029,284.044952 432.130188,283.990387 
	C411.118774,283.884583 395.286194,269.648102 390.100250,249.935715 
	C389.727417,248.518402 389.898895,246.957870 389.487976,245.246704 
	C389.113251,243.632111 389.067841,242.234756 389.093018,240.423203 
z"/>
<path fill="#F7A116" opacity="1.000000" stroke="none" 
	d="
M427.671265,317.009644 
	C425.092346,324.567627 423.066376,332.475281 419.119598,339.266693 
	C409.875092,355.174164 399.871948,370.652405 389.808838,386.064728 
	C387.151276,390.135010 383.159180,393.333923 379.455109,397.014923 
	C381.099030,365.336212 383.067719,333.575531 385.052490,301.351776 
	C399.484161,301.572510 412.325714,306.718079 424.170837,314.686066 
	C425.235077,315.402008 426.291351,316.129791 427.671265,317.009644 
z"/>
<path fill="#FFD896" opacity="1.000000" stroke="none" 
	d="
M403.987000,206.200104 
	C402.232239,208.096313 400.477448,209.992508 398.090240,211.955994 
	C394.921234,213.802322 392.384674,215.581360 389.848083,217.360397 
	C372.788116,230.888535 355.704437,244.386963 338.680542,257.960297 
	C332.379608,262.984100 325.390900,266.192596 317.257904,266.214661 
	C289.301941,266.290527 261.345642,266.281219 233.389557,266.244659 
	C224.683044,266.233276 217.375366,262.637817 210.698593,257.270966 
	C194.105896,243.933716 177.416000,230.717346 160.458832,217.377930 
	C155.849472,213.770676 151.546417,210.237900 146.937546,206.136017 
	C146.076782,205.383423 145.521820,205.199951 144.966858,205.016495 
	C144.966858,205.016495 145.001465,204.998978 145.018555,204.663528 
	C144.009857,203.217499 142.984055,202.106934 141.958252,200.996353 
	C141.958252,200.996353 142.008514,200.990143 142.049683,200.633667 
	C141.403809,198.590607 140.753174,196.888092 140.023224,195.220261 
	C137.286316,188.966782 136.117386,182.431961 137.356613,175.714249 
	C143.314636,143.416718 179.938171,119.480087 212.088516,126.499969 
	C226.592194,129.666794 238.526138,137.040894 248.970612,147.701904 
	C248.303802,160.826172 254.561325,168.621033 265.958374,169.534119 
	C266.136658,174.974014 266.092010,179.970276 266.264862,184.959030 
	C266.353424,187.515717 265.726196,188.788513 262.860931,189.241592 
	C256.133698,190.305344 249.422836,191.600464 242.812119,193.234009 
	C237.229141,194.613602 233.536423,192.682861 230.621902,188.045395 
	C227.540741,183.142761 224.217056,178.392532 220.794800,173.269562 
	C215.768402,176.625549 211.132065,179.721100 206.076309,183.096695 
	C210.656479,189.773972 214.595108,196.341110 219.360367,202.240555 
	C224.549927,208.665283 231.754608,211.630402 240.108719,211.213577 
	C243.247314,211.056992 246.366516,210.511551 249.576813,210.524567 
	C252.778122,222.790771 262.718079,230.807724 274.563477,230.992081 
	C287.201843,231.188782 297.015564,223.441864 301.413147,210.105408 
	C312.138611,212.594955 322.047180,211.883957 329.466949,203.652573 
	C335.041229,197.468521 339.353241,190.146622 344.377686,183.120819 
	C339.052917,179.582581 334.416626,176.501831 329.518097,173.246841 
	C325.780579,178.838364 322.357910,183.920746 318.976898,189.030731 
	C316.774628,192.359131 313.756927,194.355042 309.751465,193.635712 
	C301.289429,192.116058 292.882599,190.289108 283.915680,188.479782 
	C283.915680,182.214188 283.915680,176.107254 284.120789,169.853363 
	C284.595215,169.505386 284.864532,169.304367 285.523804,169.116058 
	C296.818451,167.296707 302.293945,159.736862 301.529053,147.723999 
	C303.675446,145.662582 305.499695,143.711594 307.479706,141.934052 
	C320.194611,130.519302 335.302979,124.545097 352.193878,125.342857 
	C371.855072,126.271454 388.483276,134.620239 400.755310,150.383316 
	C408.678467,160.560379 414.650726,171.725189 412.905518,185.239716 
	C412.257751,190.256134 410.338715,195.108398 408.999390,200.035522 
	C408.999390,200.035522 408.990112,199.987442 408.683380,200.071808 
	C407.924835,201.123993 407.473053,202.091812 407.021240,203.059631 
	C407.021240,203.059616 407.000122,203.002533 406.752075,203.050293 
	C406.338379,203.419022 406.172760,203.739990 406.007141,204.060959 
	C406.007141,204.060959 405.998291,203.998520 405.761719,204.067505 
	C405.349243,204.447220 405.173370,204.757935 404.997498,205.068665 
	C404.997467,205.068649 404.993958,204.995743 404.761353,205.097626 
	C404.348175,205.533035 404.167572,205.866577 403.987000,206.200104 
z"/>
<path fill="#FFB531" opacity="1.000000" stroke="none" 
	d="
M248.943451,147.278381 
	C238.526138,137.040894 226.592194,129.666794 212.088516,126.499969 
	C179.938171,119.480087 143.314636,143.416718 137.356613,175.714249 
	C136.117386,182.431961 137.286316,188.966782 140.023224,195.220261 
	C140.753174,196.888092 141.403809,198.590607 142.045059,200.658569 
	C136.502335,196.071304 134.184097,189.498428 134.101883,182.473969 
	C133.830231,159.263641 134.004089,136.048141 133.991150,112.834625 
	C133.990128,111.016640 133.867050,109.198723 133.444687,107.130417 
	C133.761642,105.959572 134.733978,105.134048 135.060791,104.103752 
	C137.982315,94.893440 144.397446,88.174988 150.969498,81.572159 
	C161.290543,71.202766 171.719528,60.940033 181.978760,50.510132 
	C190.727890,41.615482 199.417404,32.703152 211.819183,28.161190 
	C252.686417,27.921101 293.329926,27.956463 334.435303,27.963133 
	C347.148010,30.255434 355.893280,37.885540 364.203064,46.577011 
	C375.702271,58.604420 387.556976,70.300438 399.488312,81.902962 
	C406.244812,88.473251 412.252960,95.425003 415.602264,104.735222 
	C416.224976,129.196579 416.889099,153.410980 416.841980,177.624008 
	C416.826660,185.492035 415.314026,193.475937 409.338196,199.927795 
	C410.338715,195.108398 412.257751,190.256134 412.905518,185.239716 
	C414.650726,171.725189 408.678467,160.560379 400.755310,150.383316 
	C388.483276,134.620239 371.855072,126.271454 352.193878,125.342857 
	C335.302979,124.545097 320.194611,130.519302 307.479706,141.934052 
	C305.499695,143.711594 303.675446,145.662582 301.398956,147.387451 
	C297.452057,137.900818 292.055878,134.090637 282.271759,134.036133 
	C278.126282,134.013031 273.968353,134.236771 269.837402,133.990402 
	C259.600739,133.379898 252.650864,137.727097 248.943451,147.278381 
M197.339508,114.803902 
	C203.229340,125.112495 214.045395,128.288589 223.068176,122.359016 
	C230.666000,117.365891 233.237335,107.504875 229.037338,99.467270 
	C224.841766,91.438072 215.242050,87.906319 206.827225,91.296097 
	C197.972061,94.863258 194.028580,104.050072 197.339508,114.803902 
M354.023987,104.033058 
	C350.709290,93.105049 341.440338,87.681664 331.535583,90.874832 
	C322.063385,93.928543 317.011017,103.776268 320.096527,113.171066 
	C322.833344,121.504120 331.432007,126.516243 340.246429,124.916336 
	C349.339233,123.265900 354.750641,115.463890 354.023987,104.033058 
M328.955658,71.710571 
	C333.571503,71.843529 338.439270,72.970383 342.744873,71.879173 
	C349.396851,70.193291 344.705139,64.147011 345.753601,60.187817 
	C346.304138,58.108986 346.752106,55.252834 342.682373,54.864758 
	C328.230682,53.486671 327.681335,53.870075 328.011292,68.083282 
	C328.034119,69.066635 328.222534,70.046143 328.955658,71.710571 
M220.155914,72.008659 
	C220.796234,70.673248 221.833191,69.382973 221.991394,67.992699 
	C222.288910,65.378128 221.846603,62.680397 222.132935,60.063305 
	C222.602631,55.770321 220.691223,54.802914 216.717743,54.842232 
	C204.704453,54.961090 204.828705,54.814037 204.804871,67.002945 
	C204.797546,70.750618 205.692276,72.581764 209.794983,72.184456 
	C212.911392,71.882675 216.078857,72.108162 220.155914,72.008659 
z"/>
<path fill="#FFB531" opacity="1.000000" stroke="none" 
	d="
M141.979156,201.335968 
	C142.984055,202.106934 144.009857,203.217499 145.009186,204.680557 
	C143.988495,203.913895 142.994278,202.794739 141.979156,201.335968 
z"/>
<path fill="#FFB531" opacity="1.000000" stroke="none" 
	d="
M145.039047,205.331406 
	C145.521820,205.199951 146.076782,205.383423 146.786346,205.833740 
	C146.331039,205.949188 145.721130,205.797745 145.039047,205.331406 
z"/>
<path fill="#FFB531" opacity="1.000000" stroke="none" 
	d="
M407.304321,202.972321 
	C407.473053,202.091812 407.924835,201.123993 408.707825,200.073456 
	C409.026001,200.400894 409.013031,200.811050 408.997620,201.528931 
	C408.525879,202.186111 408.056610,202.535553 407.304321,202.972321 
z"/>
<path fill="#000000" opacity="1.000000" stroke="none" 
	d="
M389.911255,217.770294 
	C392.384674,215.581360 394.921234,213.802322 397.813477,212.133530 
	C395.693481,217.707413 393.217834,223.171082 390.387939,228.762024 
	C390.013947,225.319611 389.994171,221.749908 389.911255,217.770294 
z"/>
<path fill="#FFB531" opacity="1.000000" stroke="none" 
	d="
M406.275391,203.999969 
	C406.172760,203.739990 406.338379,203.419022 406.782471,203.051697 
	C406.888489,203.316559 406.716095,203.627762 406.275391,203.999969 
z"/>
<path fill="#FFB531" opacity="1.000000" stroke="none" 
	d="
M405.264587,204.995239 
	C405.173370,204.757935 405.349243,204.447220 405.793121,204.070282 
	C405.884644,204.309952 405.708160,204.615875 405.264587,204.995239 
z"/>
<path fill="#FFB531" opacity="1.000000" stroke="none" 
	d="
M404.245789,206.075592 
	C404.167572,205.866577 404.348175,205.533035 404.797791,205.095398 
	C404.879395,205.311234 404.692017,205.631149 404.245789,206.075592 
z"/>
<path fill="#314052" opacity="1.000000" stroke="none" 
	d="
M283.915680,170.000305 
	C283.915680,176.107254 283.915680,182.214188 283.915680,188.479782 
	C292.882599,190.289108 301.289429,192.116058 309.751465,193.635712 
	C313.756927,194.355042 316.774628,192.359131 318.976898,189.030731 
	C322.357910,183.920746 325.780579,178.838364 329.518097,173.246841 
	C334.416626,176.501831 339.052917,179.582581 344.377686,183.120819 
	C339.353241,190.146622 335.041229,197.468521 329.466949,203.652573 
	C322.047180,211.883957 312.138611,212.594955 301.039001,209.978394 
	C283.298004,204.355499 266.381592,204.471863 249.494553,210.143372 
	C246.366516,210.511551 243.247314,211.056992 240.108719,211.213577 
	C231.754608,211.630402 224.549927,208.665283 219.360367,202.240555 
	C214.595108,196.341110 210.656479,189.773972 206.076309,183.096695 
	C211.132065,179.721100 215.768402,176.625549 220.794800,173.269562 
	C224.217056,178.392532 227.540741,183.142761 230.621902,188.045395 
	C233.536423,192.682861 237.229141,194.613602 242.812119,193.234009 
	C249.422836,191.600464 256.133698,190.305344 262.860931,189.241592 
	C265.726196,188.788513 266.353424,187.515717 266.264862,184.959030 
	C266.092010,179.970276 266.136658,174.974014 266.314087,169.509628 
	C267.012512,169.022964 267.488159,169.007523 268.285889,169.257126 
	C273.710571,169.681549 278.813141,169.840927 283.915680,170.000305 
z"/>
<path fill="#303F51" opacity="1.000000" stroke="none" 
	d="
M267.963776,168.992096 
	C267.488159,169.007523 267.012512,169.022964 266.181213,169.062897 
	C254.561325,168.621033 248.303802,160.826172 248.970612,147.701904 
	C252.650864,137.727097 259.600739,133.379898 269.837402,133.990402 
	C273.968353,134.236771 278.126282,134.013031 282.271759,134.036133 
	C292.055878,134.090637 297.452057,137.900818 301.148865,147.578094 
	C302.293945,159.736862 296.818451,167.296707 285.050018,169.057495 
	C278.778748,168.988174 273.371277,168.990143 267.963776,168.992096 
z"/>
<path fill="#E85050" opacity="1.000000" stroke="none" 
	d="
M249.576813,210.524551 
	C266.381592,204.471863 283.298004,204.355499 300.618286,210.002182 
	C297.015564,223.441864 287.201843,231.188782 274.563477,230.992081 
	C262.718079,230.807724 252.778122,222.790771 249.576813,210.524551 
z"/>
<path fill="#686761" opacity="1.000000" stroke="none" 
	d="
M268.285889,169.257141 
	C273.371277,168.990143 278.778748,168.988174 284.660034,169.044785 
	C284.864532,169.304367 284.595215,169.505386 284.120789,169.853348 
	C278.813141,169.840927 273.710571,169.681549 268.285889,169.257141 
z"/>
<path fill="#313F51" opacity="1.000000" stroke="none" 
	d="
M197.196381,114.434814 
	C194.028580,104.050072 197.972061,94.863258 206.827225,91.296097 
	C215.242050,87.906319 224.841766,91.438072 229.037338,99.467270 
	C233.237335,107.504875 230.666000,117.365891 223.068176,122.359016 
	C214.045395,128.288589 203.229340,125.112495 197.196381,114.434814 
z"/>
<path fill="#314051" opacity="1.000000" stroke="none" 
	d="
M354.078613,104.463959 
	C354.750641,115.463890 349.339233,123.265900 340.246429,124.916336 
	C331.432007,126.516243 322.833344,121.504120 320.096527,113.171066 
	C317.011017,103.776268 322.063385,93.928543 331.535583,90.874832 
	C341.440338,87.681664 350.709290,93.105049 354.078613,104.463959 
z"/>
<path fill="#FFD794" opacity="1.000000" stroke="none" 
	d="
M328.644806,71.369003 
	C328.222534,70.046143 328.034119,69.066635 328.011292,68.083282 
	C327.681335,53.870075 328.230682,53.486671 342.682373,54.864758 
	C346.752106,55.252834 346.304138,58.108986 345.753601,60.187817 
	C344.705139,64.147011 349.396851,70.193291 342.744873,71.879173 
	C338.439270,72.970383 333.571503,71.843529 328.644806,71.369003 
z"/>
<path fill="#FFD896" opacity="1.000000" stroke="none" 
	d="
M219.689758,72.053848 
	C216.078857,72.108162 212.911392,71.882675 209.794983,72.184456 
	C205.692276,72.581764 204.797546,70.750618 204.804871,67.002945 
	C204.828705,54.814037 204.704453,54.961090 216.717743,54.842232 
	C220.691223,54.802914 222.602631,55.770321 222.132935,60.063305 
	C221.846603,62.680397 222.288910,65.378128 221.991394,67.992699 
	C221.833191,69.382973 220.796234,70.673248 219.689758,72.053848 
z"/>
</svg>